<svg xmlns="http://www.w3.org/2000/svg" viewBox="0 0 1504.24 1451.25"><defs><style>.cls-1,.cls-10,.cls-11,.cls-2,.cls-3,.cls-4,.cls-5,.cls-6,.cls-7,.cls-8,.cls-9{fill:none;stroke:#000;}.cls-1,.cls-2,.cls-3,.cls-4,.cls-5,.cls-6,.cls-7{stroke-width:3px;}.cls-2{stroke-dasharray:25.01 25.01;}.cls-3{stroke-dasharray:22.46 22.46;}.cls-4{stroke-dasharray:22.25 22.25;}.cls-5{stroke-dasharray:26 26;}.cls-6{stroke-dasharray:22.04 22.04;}.cls-7{stroke-dasharray:22.68 22.68;}.cls-10,.cls-8,.cls-9{stroke-width:0.25px;}.cls-9{stroke-dasharray:4.99 4.99;}.cls-10{stroke-dasharray:5;}.cls-11{stroke-width:4px;}.cls-12{font-size:25px;font-family:MicrosoftSansSerif, Microsoft Sans Serif;}</style></defs><g id="Camada_2" data-name="Camada 2"><g id="Camada_1-2" data-name="Camada 1"><path class="cls-1" d="M2,1.5H1502.74"/><line class="cls-1" x1="1.99" y1="183.75" x2="14.49" y2="183.75"/><line class="cls-2" x1="39.51" y1="183.75" x2="1477.74" y2="183.75"/><line class="cls-1" x1="1490.24" y1="183.75" x2="1502.74" y2="183.75"/><line class="cls-1" x1="1.99" y1="364.5" x2="14.49" y2="364.5"/><line class="cls-2" x1="39.51" y1="364.5" x2="1477.74" y2="364.5"/><line class="cls-1" x1="1490.24" y1="364.5" x2="1502.74" y2="364.5"/><line class="cls-1" x1="1502.74" y1="543.75" x2="1490.24" y2="543.75"/><line class="cls-2" x1="1465.23" y1="543.75" x2="27" y2="543.75"/><line class="cls-1" x1="14.49" y1="543.75" x2="1.99" y2="543.75"/><line class="cls-1" x1="1.99" y1="727.5" x2="14.49" y2="727.5"/><line class="cls-2" x1="39.51" y1="727.5" x2="1477.74" y2="727.5"/><line class="cls-1" x1="1490.24" y1="727.5" x2="1502.74" y2="727.5"/><line class="cls-1" x1="1502.74" y1="906.75" x2="1490.24" y2="906.75"/><line class="cls-2" x1="1465.23" y1="906.75" x2="27" y2="906.75"/><line class="cls-1" x1="14.49" y1="906.75" x2="1.99" y2="906.75"/><line class="cls-1" x1="1.99" y1="1088.25" x2="14.49" y2="1088.25"/><line class="cls-2" x1="39.51" y1="1088.25" x2="1477.74" y2="1088.25"/><line class="cls-1" x1="1490.24" y1="1088.25" x2="1502.74" y2="1088.25"/><line class="cls-1" x1="1502.74" y1="1269.75" x2="1490.24" y2="1269.75"/><line class="cls-2" x1="1465.23" y1="1269.75" x2="27" y2="1269.75"/><line class="cls-1" x1="14.49" y1="1269.75" x2="1.99" y2="1269.75"/><line class="cls-1" x1="1.99" y1="1449.75" x2="1502.74" y2="1449.75"/><line class="cls-1" x1="255.49" y1="1.5" x2="255.49" y2="14"/><line class="cls-3" x1="255.49" y1="36.46" x2="255.49" y2="160.02"/><line class="cls-1" x1="255.49" y1="171.25" x2="255.49" y2="183.75"/><line class="cls-1" x1="198.49" y1="183.75" x2="198.49" y2="196.25"/><line class="cls-4" x1="198.49" y1="218.5" x2="198.49" y2="340.87"/><line class="cls-1" x1="198.49" y1="352" x2="198.49" y2="364.5"/><line class="cls-1" x1="756.49" y1="1.5" x2="756.49" y2="14"/><line class="cls-5" x1="756.49" y1="40" x2="756.49" y2="339"/><line class="cls-1" x1="756.49" y1="352" x2="756.49" y2="364.5"/><line class="cls-1" x1="130.99" y1="364.5" x2="130.99" y2="377"/><line class="cls-6" x1="130.99" y1="399.04" x2="130.99" y2="520.23"/><line class="cls-1" x1="130.99" y1="531.25" x2="130.99" y2="543.75"/><line class="cls-1" x1="504.49" y1="543.75" x2="504.49" y2="531.25"/><line class="cls-6" x1="504.49" y1="509.21" x2="504.49" y2="388.02"/><line class="cls-1" x1="504.49" y1="377" x2="504.49" y2="364.5"/><line class="cls-1" x1="69.49" y1="543.75" x2="69.49" y2="556.25"/><line class="cls-5" x1="69.49" y1="582.25" x2="69.49" y2="881.25"/><line class="cls-1" x1="69.49" y1="894.25" x2="69.49" y2="906.75"/><line class="cls-1" x1="198.49" y1="727.5" x2="198.49" y2="740"/><line class="cls-6" x1="198.49" y1="762.04" x2="198.49" y2="883.23"/><line class="cls-1" x1="198.49" y1="894.25" x2="198.49" y2="906.75"/><line class="cls-1" x1="333.49" y1="543.75" x2="333.49" y2="556.25"/><line class="cls-7" x1="333.49" y1="578.93" x2="333.49" y2="703.66"/><line class="cls-1" x1="333.49" y1="715" x2="333.49" y2="727.5"/><line class="cls-8" x1="1375.24" y1="1.5" x2="1375.24" y2="4"/><line class="cls-9" x1="1375.24" y1="8.99" x2="1375.24" y2="1444.75"/><line class="cls-8" x1="1375.24" y1="1447.25" x2="1375.24" y2="1449.75"/><line class="cls-10" x1="1251.49" y1="1.5" x2="1251.49" y2="1449.75"/><line class="cls-10" x1="1127.74" y1="1449.75" x2="1127.74" y2="1.5"/><line class="cls-10" x1="1003.99" y1="1.5" x2="1003.99" y2="1449.75"/><line class="cls-10" x1="884.74" y1="1449.75" x2="884.74" y2="1.5"/><line class="cls-10" x1="756.49" y1="364.5" x2="756.49" y2="1449.75"/><line class="cls-10" x1="634.99" y1="1449.75" x2="634.99" y2="1.5"/><line class="cls-10" x1="504.49" y1="1.5" x2="504.49" y2="364.5"/><line class="cls-10" x1="504.49" y1="543.75" x2="504.49" y2="1449.75"/><line class="cls-10" x1="389.74" y1="1449.75" x2="389.74" y2="1.5"/><line class="cls-10" x1="255.49" y1="183.75" x2="256.99" y2="1449.75"/><line class="cls-10" x1="130.99" y1="1449.75" x2="130.99" y2="543.75"/><line class="cls-10" x1="130.99" y1="364.5" x2="130.99" y2="1.5"/><line class="cls-10" x1="69.49" y1="1.5" x2="69.49" y2="543.75"/><line class="cls-10" x1="69.49" y1="906.75" x2="69.49" y2="1449.75"/><path class="cls-11" d="M225.1,1.5c-85.45,155.45-113.43,289-62.61,333.75,8.16,7.19,19.56,13.17,36,15.75L959,346.5a239.2,239.2,0,0,0,45-5.25c28.74-6.17,48.07-15.94,59.25-21,22.38-10.12,56.37-21.37,105.77-24.62L1502.74,294"/><path class="cls-11" d="M116,1.5c-19.46,75.93-33.38,145.27-43.5,206-15.09,90.58-23.59,141.57-25,201C46.64,444.39,40,480.15,41.27,516c0,0,.78,22.07-6.57,55-2.51,11.24-6,26.4-10.71,26.46-5.36.07-9.7-19.41-11.36-27.67Q8.34,540.28,5,508.7,3.3,491.86,2,475.5"/><path class="cls-11" d="M69.49,1449.75c26.75-131.25,46-230.25,72.75-361.5,1.37-7.33,3.13-17.92,4.5-30.75,1.78-16.62,2-28.56,2.25-45.38.64-40.91.95-64.89-1.5-94.12-.66-7.94-1.86-20.22-8.62-34.12A86.13,86.13,0,0,0,124.52,863c-9.54-7.81-24.61-19.64-44.15-32.74C54.29,812.76,44.67,809.38,33,797.91,22,787.13,8.55,768.65,2,735.75"/><path class="cls-11" d="M411.49,977.25c-37.27-21.34-68.58-40.12-92.5-54.75-49-30-77-47.19-108.5-70.5-8-5.89-28.45-21.28-53-40.5-11-8.57-20-15.82-26.5-21a249.19,249.19,0,0,1-33-78c-5.51-24-6.26-44.47-7-64.5a485,485,0,0,1,1.52-60A342.17,342.17,0,0,1,100,519a317.52,317.52,0,0,1,10-36c10.27-31,15.66-46.61,28.5-54.5,4.84-3,16.9-8.87,38.35-4.29,13.74,3,34.13,7.11,59,11.34,46.05,7.83,78.38,10.95,108.9,14.36,62.95,7,93.43,12.55,134.27,18.09,60.66,8.23,170.35,20.08,385.5,36"/><text class="cls-12" transform="translate(229.11 114.93)">S</text><text class="cls-12" transform="matrix(1, 0, 0, 1, 265.49, 114.93)">U</text><text class="cls-12" transform="translate(171.61 276.93)">S</text><text class="cls-12" transform="matrix(1, 0, 0, 1, 208.49, 276.93)">U</text><text class="cls-12" transform="matrix(1, 0, 0, 1, 140.99, 498.09)">U</text><text class="cls-12" transform="matrix(1, 0, 0, 1, 305.54, 659.46)">U</text><text class="cls-12" transform="matrix(1, 0, 0, 1, 208.49, 793.52)">MU</text><text class="cls-12" transform="translate(79.55 498.09)">S</text><text class="cls-12" transform="translate(42.52 657.43)">S</text><text class="cls-12" transform="translate(42.64 793.52)">S</text><text class="cls-12" transform="translate(79.49 793.52)">U</text><text class="cls-12" transform="translate(171.97 793.83)">U</text><text/><text/><text/><text class="cls-12" transform="matrix(1, 0, 0, 1, 12.88, 1076.03)">c P</text><text class="cls-12" transform="translate(101.49 657.43)">U</text><text class="cls-12" transform="matrix(1, 0, 0, 1, 343.49, 659.46)">MU</text><text class="cls-12" transform="matrix(1, 0, 0, 1, 480.16, 699.89)">m P</text><text class="cls-12" transform="matrix(1, 0, 0, 1, 514.51, 513.22)">MU</text><text class="cls-12" transform="matrix(1, 0, 0, 1, 476.44, 513.22)">U</text><text class="cls-12" transform="translate(11.99 258.73)">c T</text><text class="cls-12" transform="translate(480.16 254.26)">m T</text><text class="cls-12" transform="translate(597.69 254.26)">( m E )</text><text class="cls-12" transform="translate(770.44 274.12)">M T</text><text class="cls-12" transform="translate(729.07 274.12)">U</text><text class="cls-12" transform="translate(767.88 113.08)">M T</text><text class="cls-12" transform="translate(726.51 113.08)">U</text><line class="cls-1" x1="1502.74" y1="1449.75" x2="1502.74" y2="1.5"/><line class="cls-1" x1="1.99" y1="1449.75" x2="1.99" y2="1.5"/></g></g></svg>